<?xml version="1.0" encoding="UTF-8"?>
<svg viewBox="0 0 744.09 1052.4" xmlns="http://www.w3.org/2000/svg">
 <path d="m366.74 759.65c-1.2982-1.6957-1.2175-2.6893 0.47739-5.7982 2.7943-5.1315 4.4434-15.427 3.0884-19.292-1.9384-5.5289-4.9654-2.9716-8.9218 7.537-2.8666 7.6077-4.2879 9.8878-6.3709 10.213-3.8973 0.60925-4.3361-2.352-1.5298-10.361 4.711-13.439 2.1735-15.694-7.1196-6.3304-6.9074 6.9605-10.42 8.817-12.471 6.5931-0.96802-1.0498-0.031372-2.7704 3.4452-6.3395 2.6267-2.6958 5.4295-6.4989 6.2287-8.4534 1.279-3.1247 1.1513-3.7849-1.0524-5.4584-2.9908-2.2722-5.1293-1.5846-10.408 3.3496-4.2445 3.9666-7.3414 4.6517-9.6631 2.1336-2.1916-2.3781-1.7865-3.4031 2.2373-5.6596 2.0264-1.1362 5.9551-4.3863 8.7325-7.2233s5.8019-5.1576 6.7206-5.1576c0.91858 0 4.4133 2.1362 7.7645 4.7485 6.764 5.27 17.229 10.907 20.283 10.927 3.0318 0.019592 3.5646-3.3914 1.0693-6.8338-1.2332-1.6995-5.9502-5.1-10.48-7.5566-11.897-6.452-17.512-6.2324-30.79 1.2067-11.052 6.1904-13.648 6.2963-14.967 0.60535-1.0416-4.5066 2.3712-7.6874 13.05-12.16 17.578-7.3632 21.356-10.361 25.758-20.44 4.1528-9.5086 3.843-21.572-0.90411-35.214-1.6793-4.8255-12.759-32.25-17.694-43.797-4.711-11.021-13.272-25.259-17.203-28.615-1.7033-1.4524-7.04-3.6149-11.86-4.8034-11.002-2.714-13.846-1.6512-14.913 5.5787-1.3043 8.8536 2.0722 33.808 7.292 53.878 2.0107 7.7332 1.5539 16.999-1.1006 22.334-2.8787 5.7813-8.4118 14.84-13.721 22.46-7.1858 10.314-8.8325 14.184-10.817 25.434-1.6515 9.3582-5.8936 19.39-9.6161 22.741-0.98004 0.88251-3.0583 1.2054-4.7665 0.73871-2.3905-0.64978-3.0294-1.6487-3.0294-4.7366 0-3.8568-0.073547-3.9-5.0051-3.045-4.0661 0.70606-5.3102 0.41577-6.6302-1.5413-2.2157-3.2855-2.188-3.3888 2.5833-9.8969 6.9894-9.5374 4.9389-10.379-6.0154-2.4722-7.8272 5.6491-10.775 6.4166-11.944 3.1089-0.49422-1.3937 0.94995-4.1208 4.218-7.9672 2.898-3.4083 4.523-6.3303 3.8973-7.0076-0.62566-0.67712-3.9395-0.043091-7.9538 1.5218-3.7864 1.476-8.1092 2.4958-9.6065 2.2644-7.2293-1.1139 0.98851-11.355 11.54-14.382 6.3059-1.8094 5.6778-2.0265 19.584 6.7409 3.2898 2.0748 5.6827 2.7716 7.2329 2.1088 2.0915-0.89429 1.8601-1.4237-2.3772-5.4308-12.238-11.576-22.276-12.561-46.532-4.5706-5.8056 1.9127-8.3974 1.7375-9.2328-0.6236-1.8191-5.1432 6.6289-10.032 23.779-13.759 13.829-3.007 17.055-4.5183 26.078-12.214 8.2057-6.9998 11.622-14.364 12.201-26.307 0.44717-9.2406 0.2688-10.164-11.201-57.491-4.7966-19.798-5.4355-21.303-11.263-26.553-10.807-9.7399-25.991-19.864-33.969-22.652l-8.014-2.7978-20.41 5.5315c-24.583 6.6624-33.556 7.9006-34.658 4.7825-0.4171-1.1754-0.15068-3.5848 0.5919-5.3524 1.7516-4.168 11.322-8.0012 36.418-14.584 14.594-3.828 19.523-5.6479 20.728-7.6521 1.9047-3.1678 4.0866-17.247 4.4084-28.462 0.27847-9.6551-1.7817-13.907-8.4914-17.526-6.3252-3.4123-15.894-2.8736-35.357 1.9885-20.015 5.0008-27.996 5.274-33.71 1.1557-5.861-4.2229-9.8235-13.151-9.1122-20.535 0.94992-9.876 7.8465-14.613 24.066-16.531 6.7037-0.79227 6.7362-0.77918 11.438 4.7432 4.6459 5.4557 4.7821 5.5159 9.1436 3.9535 3.3536-1.2002 5.4873-3.3796 8.7928-8.9843 4.9822-8.447 5.4379-8.8967 16.072-15.852 9.4654-6.1905 21.923-11.032 25.352-9.8498 3.3513 1.1531 5.99-1.4852 5.99-5.9891 0-4.2019 5.1136-22.593 8.6349-31.05 4.1927-10.068 22.849-29.505 34.703-36.153 4.5772-2.5677 5.8586-0.80402 6.8447 9.4106 1.0777 11.185-2.1349 25.362-9.2171 40.671-3.2078 6.9356-5.7007 12.752-5.5404 12.926 0.16154 0.17517 3.5128-2.6801 7.4475-6.3448 7.5487-7.0285 18.349-13.279 27.927-16.162 3.1608-0.95178 9.6848-3.0527 14.496-4.6686 7.2076-2.4226 9.2943-2.6697 11.846-1.4094 3.7105 1.8342 3.4356 4.2947-2.2096 19.684-4.8593 13.25-7.7886 17.193-18.756 25.263-13.219 9.7243-29.259 20.612-30.371 20.612-1.7383 0-2.4086 4.0503-2.4086 14.556 0 5.7316-0.87637 14.597-1.9469 19.7l-1.9444 9.2798 6.4651 6.3029c3.5573 3.4672 7.2353 6.1734 8.1743 6.0153 0.93787-0.15952 2.2941-2.9024 3.0137-6.0937 1.085-4.8242 2.7847-7.2011 10.071-14.086 7.4944-7.0821 9.1098-8.0822 11.151-6.8964 3.6863 2.1388 2.9281 4.4333-4.2433 12.832-3.6465 4.2725-6.6301 8.6365-6.6301 9.702s2.1288 3.5365 4.7315 5.4923c5.4331 4.083 6.6049 6.4428 4.9076 9.8812-1.6938 3.4319-1.5021 6.9344 0.3363 6.1696 0.84503-0.35303 5.7381-3.9091 10.873-7.9044 5.1354-3.9967 10.411-7.6352 11.723-8.0875 2.8184-0.97006 3.2223-4.5666 0.51355-4.5666-1.0307 0-5.0232 2.318-8.8711 5.1511-7.0714 5.2086-9.7475 5.2492-9.7475 0.14252 0-2.0369 5.5018-7.4403 10.54-10.352l2.7039-1.5623-3.127-5.1237c-2.6484-4.3418-3.1258-6.5814-3.1258-14.695 0-10.204 1.5696-18.522 4.2433-22.487 1.3007-1.931 2.5303-2.2513 5.9527-1.5545 4.5639 0.92954 20.43 11.561 24.262 16.259 3.3054 4.0529 4.3602 2.4121 4.3602-6.7827 0-9.7099 3.9672-23.566 7.5198-26.265 2.2024-1.6721 3.0872-1.5348 8.2142 1.2826 5.9984 3.2959 13.888 11.343 15.105 15.401 1.4092 4.7026 4.3602 1.5336 7.0713-7.592 4.529-15.242 6.6049-18.957 10.59-18.957 15.71 0 26.232 29.122 17.432 48.252-3.2174 6.9958-2.769 8.1738 2.9294 7.7123l4.9738-0.4014 0.3375-9.1517c0.57983-15.681 4.7641-23.096 16.748-29.682 5.5006-3.024 8.1322-3.7535 11.452-3.1782 6.8592 1.191 8.759 4.8713 8.4998 16.463-0.12058 5.4217-0.16516 10.283-0.094055 10.802 0.068726 0.51773 2.0361-0.46542 4.3723-2.1859 4.4663-3.2881 22.428-11.176 25.449-11.176 0.9704 0 3.3199 0.87073 5.2197 1.9362 4.2614 2.3899 6.4963 11.309 4.6495 18.561-2.7425 10.777-13.814 26.567-18.626 26.567-3.303 0-1.537 3.9679 3.2138 7.2207 5.145 3.5221 7.1883 3.3364 7.1883-0.65372 0-5.4701 4.7773-14.362 9.8765-18.38 13.357-10.526 27.034-13.793 32.864-7.8534 2.5857 2.6344 3.063 4.2712 3.0353 10.415-0.049316 11.581-4.8665 19.958-18.367 31.95-6.148 5.4609-6.3662 8.1018-0.56293 6.8428 2.781-0.60272 4.5941-0.01178 7.6102 2.4827 4.441 3.6737 7.4522 3.9692 14.127 1.3872 18.312-7.0848 20.94-19.019 8.6143-39.144-16.321-26.65-19.638-30.716-38.511-47.189-12.295-10.73-37.036-26.999-46.63-30.663-3.5272-1.3466-14.549-5.9813-24.494-10.3-9.9452-4.3183-21.067-8.8745-24.712-10.127-10.677-3.6672-12.502-6.3958-9.0785-13.576 2.6786-5.6152 6.6458-6.4781 23.823-5.1812 28.833 2.1768 50.153 9.3112 78.124 26.141 18.337 11.033 47.698 38.77 56.181 53.073 2.2133 3.73 4.9775 7.5527 6.1432 8.498 2.6376 2.135 11.172 15.519 14.654 22.981 1.4321 3.0659 4.0046 11.283 5.7164 18.259 2.552 10.403 3.0282 14.81 2.6352 24.495-0.59796 14.779-4.382 24.257-15.563 38.997-15.758 20.774-14.35 16.962-14.285 38.684 0.030212 10.502 0.56543 23.511 1.1838 28.908 1.2742 11.1 3.4416 14.064 12.432 16.993 6.6772 2.1768 21.741 2.7847 28.701 1.1596 8.4082-1.965 12.912 0.83936 26.111 16.255 3.0185 3.5247 5.0438 7.0625 4.8074 8.3987-0.53644 3.0593-5.098 3.645-8.4637 1.0877-3.4114-2.5898-8.1888-2.6814-8.1888-0.15552 0 1.0433 1.8974 3.4659 4.2192 5.3851 2.687 2.2226 4.2192 4.5928 4.2192 6.5265 0 4.751-1.9071 4.9117-7.3666 0.62097-6.154-4.8347-8.811-5.1916-7.6428-1.0249 0.45203 1.6172 2.1168 4.8138 3.696 7.103 3.1318 4.5366 3.7454 8.9987 1.3682 9.9517-0.82935 0.33209-3.532-1.493-6.0057-4.0554-5.128-5.3119-6.8652-4.7642-4.7749 1.5061 2.0457 6.1329 1.7889 9.2562-0.98364 11.98-2.0505 2.0122-2.8535 2.1285-5.2222 0.75305-7.9044-4.5876-8.3202-15.04-1.2152-30.394 4.5181-9.7687 4.9064-12.22 2.1193-13.378-2.986-1.2433-4.1131 0.16467-8.6831 10.832-3.7176 8.6798-4.2758 11.301-4.365 20.516-0.091614 9.4943 0.23517 11.093 3.2139 15.759 3.7346 5.8519 4.1227 8.5817 1.5442 10.902-1.4502 1.306-2.4531 0.80273-5.5512-2.7821-5.6863-6.5814-7.5294-12.249-7.3715-22.68 0.075928-5.0347-0.24957-9.7935-0.72327-10.577-0.47138-0.78314-6.242-2.5115-12.82-3.8411-6.5784-1.3296-14.174-3.6293-16.877-5.1106-4.2879-2.3507-5.2764-3.7797-7.7441-11.193-1.5563-4.6739-4.3892-15.115-6.2938-23.201-4.1323-17.526-6.0322-21.863-10.729-24.496-5.8442-3.2776-9.0713-2.5179-13.581 3.194-5.8984 7.473-15.172 28.176-16.714 37.313-3.8069 22.556 2.1783 36.774 23.342 55.45 5.227 4.6111 10.802 10.233 12.391 12.492 3.7502 5.3315 4.3771 12.214 1.2995 14.24-1.7141 1.1282-2.3917 1.1126-2.7894-0.070618-0.84259-2.4984-7.6356-11.408-9.6294-12.629-3.9769-2.4331-4.4615 1.4512-1.1754 9.3948 3.7394 9.0366 3.8214 9.821 1.3068 12.547-3.2379 3.5129-5.2487 2.3141-8.6168-5.1354-1.7865-3.9549-3.6659-7.1906-4.1746-7.1906-1.015 0-0.23267 6.0767 1.6455 12.797 1.4851 5.3119-0.26886 8.1215-5.0691 8.1215-2.8377 0-3.6924-0.9021-5.5802-5.8793-3.2608-8.6026-5.7502-7.8731-4.6833 1.3727 0.93426 8.1254-0.33151 11.044-4.7966 11.044-2.4038 0-2.9667-1.1218-4.6737-9.3126-3.4537-16.586-2.7316-18.306 10.904-26.016 10.573-5.9773 14.202-9.7923 10.704-11.249-2.3242-0.96619-12.912 3.6606-19.21 8.3947-9.2786 6.9736-10.689 11.494-9.2087 29.547 0.56055 6.8402 0.3291 9.455-0.95834 10.851-2.5424 2.7586-5.3306 1.5322-6.4047-2.8213-1.625-6.5906-2.0011-29.489-0.69916-42.716 1.3779-14.027 1.2224-14.512-8.4806-26.414-6.5193-7.9999-11.134-16.734-11.121-21.054 0.006012-2.1964 1.4213-7.2285 3.1439-11.183 8.2419-18.916 10.601-31.857 7.1352-39.129-2.3001-4.8203-3.4091-5.1942-17.927-6.0336-6.7422-0.39087-16.053-0.96088-20.694-1.2681-4.6423-0.30591-14.678-0.90594-22.301-1.3336-17.396-0.97534-18.176-1.1556-22.094-5.0935-4.2602-4.2817-4.1806-6.4128 0.20254-5.3682 6.3046 1.5009 8.4902-7.137 2.2627-8.9477-4.2903-1.2472-5.5428-0.96747-8.0972 1.8029-3.0378 3.2932-3.1222 9.753-0.20856 15.738 1.2115 2.4893 4.8425 9.8211 8.0695 16.293 15.574 31.233 18.699 38.264 20.631 46.392 1.9457 8.1921 1.9529 9.3373 0.10849 17.443-1.0861 4.7706-3.6116 12.721-5.6115 17.665-2.8136 6.9501-4.0637 12.935-5.5114 26.38-1.0307 9.5635-3.1451 22.284-4.699 28.267-4.1396 15.95-7.6608 20.616-11.636 15.42zm3.7334-56.372c2.5026-1.6041 4.4615-4.9849 7.204-12.437 2.071-5.6296 3.5911-11.208 3.379-12.398-0.21216-1.1884-1.9348-2.7219-3.8262-3.4043-2.7449-0.99237-4.0854-0.72699-6.6302 1.3178-3.9926 3.203-8.7446 13.641-9.5317 20.934-0.53043 4.908-0.27246 5.6779 2.2687 6.7814 1.578 0.68366 3.0547 1.2812 3.2849 1.3282 0.22665 0.041809 1.9625-0.91126 3.8515-2.122zm116.63-16.826c0.47138-3.5442-14.772-32.443-19.28-36.558-4.4386-4.0502-7.9538-4.1652-9.2955-0.30322-1.314 3.7731 0.47617 7.5175 3.5924 7.5175 1.3236 0 2.7521 1.0289 3.1764 2.288 0.42194 1.2576 2.5761 5.3876 4.7846 9.1764 2.206 3.7888 4.0142 7.371 4.0142 7.9568 0 0.58698 1.9866 3.8372 4.4192 7.2193 4.5857 6.3827 7.9598 7.4456 8.589 2.7037zm-219.47-23.547c6.0756-4.3104 8.3926-13.721 3.6201-14.708-2.282-0.47192-10.634 5.8545-15.049 11.396-2.9932 3.7587-3.5273 7.4364-1.2103 8.3476 1.6576 0.6524 8.4191-2.0421 12.64-5.0361zm104.99-4.985c6.1251-8.1882 7.2425-11.45 5.1498-15.031-1.5225-2.6069-7.1822-2.2055-9.1918 0.65369-2.1976 3.1273-6.5976 15.546-6.5976 18.624 0 2.7103 1.0138 4.0922 3.0041 4.0922 0.7691 0 4.2047-3.7522 7.6355-8.3386zm206.74-9.1713c0.82208-2.3259-3.1174-6.2363-10.03-9.9492-2.986-1.6042-6.3879-3.8333-7.562-4.9537-3.0703-2.9273-5.1233-0.37915-3.6417 4.517 2.165 7.1578 19.394 15.584 21.233 10.386zm-99.479-6.2846c0.79562-0.86285 1.4478-2.5428 1.4478-3.7338 0-3.0815-7.4848-13.313-11.405-15.587-2.9787-1.7297-3.4537-1.6971-4.8243 0.33594-2.5219 3.7391-0.68472 8.5084 5.6525 14.69 6.5675 6.4009 6.999 6.6049 9.1291 4.2947zm-198.53-11.131c-2.7015-6.5447-6.7194-12.122-8.741-12.131-4.9183-0.023499-3.3368 8.3477 2.904 15.364 3.338 3.7521 4.0022 4.0306 5.5645 2.3362 1.473-1.5963 1.5201-2.5441 0.27246-5.5695zm82.838 5.7826c1.7938-2.3455-1.0873-16.987-4.2469-21.581-2.7738-4.0333-6.2444-5.2571-7.6946-2.7102-2.5074 4.398 2.4266 21.661 7.0183 24.562 2.7956 1.765 3.391 1.7322 4.9232-0.27063zm182.2-12.607c2.0204-4.0947 1.4128-15.908-1.1319-21.984-2.4279-5.8022-3.7105-6.6663-5.8154-3.9156-2.8039 3.666-2.8605 8.7843-0.19769 17.582 1.4792 4.887 2.9197 9.3268 3.1994 9.8668 0.90894 1.7349 2.663 1.0459 3.9456-1.5493zm-62.847-8.4417c0.21939-2.0801-0.086792-4.1392-0.67627-4.5759-0.5907-0.43793-3.4236-4.7667-6.2938-9.6197-2.8702-4.8544-5.9116-8.8248-6.7591-8.8248-5.9334 0-6.823 4.2751-2.6412 12.689 6.7844 13.661 15.442 19.123 16.37 10.331zm8.2588-19.075c3.2849-7.171-6.9978-16.206-10.459-9.1909-1.5442 3.1285 0.26157 11.122 2.7714 12.272 2.9812 1.3622 6.2516 0.050903 7.6874-3.0815zm-214.23-2.5534c0.68472-1.3897 1.2477-6.0649 1.2477-10.386 0-6.5344-0.50873-8.4745-3.0174-11.525-2.9414-3.5783-3.0607-3.6058-4.8219-1.1309-2.0831 2.9272-2.4797 16.941-0.62927 22.218 1.4092 4.0176 5.4174 4.4764 7.2209 0.82361zm77.266-0.166c3.3814-3.6673 2.5339-6.8273-2.106-7.8561-2.1036-0.46533-6.3987-2.6971-9.5414-4.9537-8.9326-6.4179-10.818-5.423-6.6241 3.4921 2.4592 5.2269 10.177 12.012 13.664 12.012 1.1669 0 3.2416-1.212 4.6074-2.6945zm102.86-4.5916c1.49-4.2111-4.2879-10.038-7.6922-7.7567-2.1168 1.4186-1.3164 5.6649 1.4647 7.7776 3.4043 2.5874 5.3077 2.5808 6.2275-0.020874zm72.744-3.9928c3.8334-1.1138 5.855-9.2354 3.1174-12.516-2.6387-3.1652-6.9954-3.2136-5.8031-0.065369 2.347 6.2075-0.61725 9.778-5.9407 7.1475-3.7056-1.8304-4.1866-7.3004-1.191-13.58 1.7841-3.7457 2.2482-3.9627 6.9315-3.2449 2.7593 0.42358 6.5783 1.1661 8.4878 1.6499 5.7018 1.4447 3.2728-2.0918-4.2964-6.2558-11.667-6.4179-16.929-2.9429-18.576 12.271-0.74384 6.8702-0.65942 7.1368 3.6357 11.225 4.3493 4.1418 7.9308 5.0269 13.635 3.3678zm14.548-6.7094c0.2243-4.1732-0.12891-6.8507-0.90411-6.8507-0.69672 0-1.3091 0.73602-1.3609 1.6342-0.049438 0.89948-0.3111 2.5167-0.57861 3.5953-2.1169 8.4862-2.0952 9.417 0.20734 8.9424 1.8251-0.37787 2.3446-1.8251 2.6363-7.3213zm-114.23-0.0955c2.1108-1.8526 2.5447-3.1822 1.9191-5.8832-1.0753-4.6464-4.2252-4.3785-7.9128 0.6759-2.8353 3.8856-2.8582 4.0778-0.67389 5.8101 2.9125 2.3114 3.4019 2.2669 6.6675-0.60272zm50.584-3.143c0-10.468-19.016-25.872-22.709-18.394-2.8353 5.7472 6.3035 18.566 15.763 22.116 4.4892 1.6852 6.946 0.37 6.946-3.7222zm-71.125-2.2709c7.1642-4.1693 11.133-13.918 8.6023-21.138-1.6334-4.6608-8.8699-8.2758-12.506-6.2466-4.4916 2.5062-9.3569 8.0626-9.3569 10.685 0 3.9692 2.3121 7.5136 4.9015 7.5136 3.2873 0 4.1492-3.1835 1.8347-6.7684-2.4881-3.8516-2.4194-4.615 0.57623-6.3525 3.0113-1.748 6.9122 0.56085 9.3702 5.5394 1.3417 2.7194 1.308 3.9758-0.21576 7.9305-4.6351 12.031-25.148 7.1841-25.148-5.942 0-10.875 7.9887-18.02 28.57-25.546 12.58-4.6007 18.468-7.8182 20.518-11.212 2.8775-4.7641 1.1657-6.6559-3.0667-3.3887-5.198 4.0136-15.547 8.6771-21.672 9.7622-8.6529 1.5322-23.384 8.2039-26.762 12.118-11.943 13.845-7.9706 32.766 7.474 35.599 5.1884 0.9491 12.85-0.20923 16.879-2.5534zm-57.863-0.8943c0-0.31757-0.8523-2.3663-1.8938-4.5496-1.2682-2.6592-4.0516-5.0425-8.4227-7.2141-6.512-3.2345-8.97-3.1874-8.97 0.16992 0 1.9532 7.0147 8.3333 12.609 11.467 3.1258 1.7532 6.6772 1.8198 6.6772 0.12671zm190.47-3.0632c0-0.7204-0.57501-1.3074-1.279-1.3074-0.70166 0-0.93909 0.58698-0.52924 1.3074 0.40985 0.71912 0.9837 1.3074 1.2766 1.3074 0.29297 0 0.53168-0.58826 0.53168-1.3074zm-43.878-1.8395c1.3911-3.9326-10.294-19.079-14.72-19.079-2.5218 0-3.3006 3.2279-1.6298 6.7618 2.3374 4.9431 11.123 14.156 13.5 14.156 1.2115 0 2.4917-0.82752 2.8498-1.8395zm-214.86-9.2275c1.9469-1.9572 3.4043-5.5316 4.3373-10.649 2.2229-12.18 3.6514-16.099 7.6849-21.082 8.3865-10.358 23.552-11.221 31.423-1.7872 2.9944 3.5888 4.6929 3.5012 3.7141-0.1922-1.5659-5.9198-7.0219-9.7504-16.308-11.449-17.874-3.2698-22.192 1.1649-27.984 28.735-1.3224 6.295-2.0831 7.5122-6.324 10.111-5.6416 3.4568-11.017 3.777-17.101 1.0185-5.5428-2.5115-6.5265-1.48-2.6267 2.7507 6.3541 6.8925 17.628 8.128 23.184 2.5428zm153.72-0.2379c0.76666-1.8251 1.7286-7.609 2.1361-12.857 0.69556-8.9281 0.57983-9.5962-1.813-10.421-1.4068-0.4837-4.0576-0.10327-5.8924 0.8446-3.9805 2.0591-4.8545 7.8835-2.769 18.434 1.8564 9.3753 5.3716 11.062 8.3383 3.9993zm-71.516-3.2018c1.6093-2.8226-2.7497-5.1485-12.552-6.6977-8.4504-1.3361-10.126-1.2917-11.029 0.29285-1.2417 2.1794 0.54242 4.9955 4.1806 6.5945 3.6791 1.6172 18.452 1.4734 19.4-0.18964zm144.95-0.136c2.6304-2.8514 1.5165-6.3081-4.1421-12.868-3.69-4.2777-6.571-6.4807-8.4781-6.4807-6.3831 0-4.3458 9.0523 3.6779 16.351 5.4114 4.9223 6.7555 5.3721 8.9423 2.9978zm-187.27-1.5897c4.4181-2.0016 6.6892-5.4204 6.6892-10.075 0-2.8854-0.073547-2.8697-3.5598 0.7544-3.2174 3.343-4.1107 3.6175-9.2653 2.8514-8.401-1.2486-11.284-3.7548-11.284-9.8041 0-4.0477 0.56659-5.2687 2.9993-6.4716 1.649-0.81451 3.8189-1.1401 4.8219-0.72302 2.1168 0.88123 2.4387 5.1407 0.487 6.4481-2.2446 1.5048 1.537 3.156 3.9817 1.7376 2.9112-1.6892 2.7437-4.921-0.44601-8.6027-3.7334-4.3104-8.2177-3.8777-12.67 1.2238-6.5927 7.5527-8.3323 14.617-4.459 18.103 6.5192 5.8649 15.735 7.7162 22.705 4.5576zm216.2-3.492c0.46173-4.2935-3.473-9.7792-6.2023-8.6432-4.3892 1.8252-0.70874 13.347 3.9577 12.39 1.0367-0.21307 2.0469-1.8984 2.2446-3.747zm-72.312-1.0054c9.3895-1.0197 12.436-3.1926 9.2762-6.6193-1.4321-1.5532-3.7032-1.6198-14.004-0.40662-12.085 1.425-16.816 3.5404-15.009 6.7108 0.9234 1.6199 6.8544 1.714 19.737 0.31506zm-189.61-6.7618c1.0897-1.306 2.2578-4.6268 2.5942-7.3802 0.50632-4.1405 0.092834-5.5303-2.3965-8.0548-5.2523-5.3263-19.823-7.3253-23.941-3.2841-1.49 1.4642-2.2036 4.0019-2.2036 7.8442 0 6.146 1.6973 7.6312 2.8811 2.5206 0.40144-1.7375 2.6292-4.432 4.9473-5.9865 3.6876-2.4722 4.7472-2.6356 8.4492-1.31 6.2866 2.25 8.8639 9.4315 4.7218 13.159-1.4658 1.3192-2.7171 1.3832-5.4198 0.27588-3.925-1.6068-5.8056-0.075867-3.5417 2.8841 2.7582 3.6071 10.659 3.2266 13.909-0.66809zm89.175-5.1929c0-3.1991-0.21698-3.2776-10.226-3.6541-10.353-0.38959-15.692 1.123-15.692 4.4451 0 1.9925 4.7677 2.7219 16.877 2.582 8.8144-0.10193 9.041-0.18689 9.041-3.373zm191.38-8.0116c5.0196-9.2001 5.4416-11.296 2.5171-12.512-1.3514-0.56213-3.1885 0.61194-5.6694 3.6241-3.0137 3.6594-4.7557 4.5745-9.7427 5.1211-4.6387 0.50726-6.1733 1.2302-6.4939 3.0566-0.84271 4.7889 1.0476 8.8706 4.9328 10.642 5.5187 2.5168 8.9544 0.1543 14.456-9.9321zm-36.058 7.4128c1.1187-3.156-12.222-22.934-15.469-22.934-2.7991 0-4.189 2.8789-2.7762 5.7551 1.4104 2.8776 7.0822 11.143 11.077 16.144 2.6786 3.3496 6.172 3.8555 7.1678 1.0355zm-43.974-5.2138c1.3912-1.4996 1.2176-2.0278-1.1307-3.3901-1.9914-1.1558-6.5638-1.3806-16.114-0.79358-7.3341 0.45233-13.47 0.82629-13.635 0.83282-0.16757 0.006531-0.30136 1.1452-0.30136 2.5324 0 3.5156 2.4134 3.9797 16.877 3.241 8.3588-0.42749 13.216-1.2486 14.304-2.4226zm-74.277-10.238c2.4869-1.1663 4.5206-2.3847 4.5206-2.7103 0-0.32556-1.7636-1.7218-3.9178-3.105-2.1554-1.3832-5.4741-4.9536-7.3739-7.9358-3.9877-6.2572-3.7949-10.018 1.1561-22.779 1.596-4.113 2.9028-7.792 2.9028-8.1737 0-1.4368-6.9869-0.62366-8.0803 0.9426-0.62808 0.89951-1.7889 4.0908-2.581 7.0938-1.8143 6.8886-7.0737 11.777-13.858 12.88-2.8702 0.46674-5.931 1.327-6.8001 1.9088-2.3121 1.5505-0.487 5.7172 2.1 4.7968 10.513-3.7378 12.477-4.0464 13.594-2.1284 1.7841 3.0619 1.4381 3.6763-3.6634 6.5003-2.652 1.4669-4.8219 3.5378-4.8219 4.602 0 2.335 1.285 2.4056 7.4463 0.40399 4.0938-1.3296 4.9835-1.2263 6.77 0.7818 1.9409 2.1821 1.93 2.3978-0.21457 3.8202-5.9804 3.9666-9.2255 7.7162-8.0297 9.2785 1.2368 1.6094 9.3871-0.80536 20.851-6.1773zm-40.781 3.1364c8.4902-5.1746 3.3838-8.8601-9.3172-6.7239-9.375 1.578-15.184 4.598-13.13 6.8259 3.5248 3.8215 16.102 3.7639 22.447-0.10199zm133.3-0.0196c0-2.7586-3.1246-4.6791-4.2879-2.6357-1.1344 1.9898 0.35565 5.1105 2.4411 5.1105 1.015 0 1.8468-1.1139 1.8468-2.4748zm-250.61-3.5836c1.4381-1.88 0.63409-3.1338-6.6916-10.442-8.7325-8.7111-12.163-10.785-14.197-8.5804-1.5768 1.7114 4.7207 10.332 12.104 16.571 6.2142 5.2504 6.5675 5.3484 8.7843 2.4513zm281.95-1.2563c0-6.1905-6.0298-14.09-11.546-15.128-4.5399-0.8537-3.3404 4.6582 2.5568 11.773 6.2274 7.5082 8.9893 8.5398 8.9893 3.3547zm-242.3-4.0137c0-1.9885-13.642-9.587-17.216-9.5897-2.6557-0.001282-4.0661 3.5796-2.4845 6.3016 0.64734 1.1139 4.6664 3.3365 8.9314 4.9393 7.8947 2.9691 10.769 2.5285 10.769-1.6512zm192.98 1.3858c1.8058-2.3597 1.1235-3.1115-3.9275-4.3222-4.975-1.191-23.734 0.48376-25.379 2.267-2.8823 3.126 0.75104 4.1679 14.143 4.0569 10.386-0.086426 14.07-0.57269 15.164-2.0017zm73.036-2.5677c3.1452-2.1611 4.7399-6.8323 2.9811-8.7385-0.88483-0.96091-3.1884-0.75568-7.6547 0.68115-3.5128 1.1309-7.8779 2.4082-9.7006 2.8383-3.5743 0.84454-4.4361 4.2202-1.8082 7.0821 1.8467 2.0134 12.293 0.81183 16.182-1.863zm-126.48-1.9558c3.8587-1.4591 6.8688-6.9789 6.1154-11.219-0.65335-3.6764-5.3572-5.6557-9.4546-3.9784-3.0197 1.2355-3.737 1.0185-5.8912-1.7872-3.2922-4.2908-3.2668-9.8668 0.05545-11.794 4.541-2.637 13.521-0.7792 19.003 3.93 2.7123 2.3298 4.9316 5.1184 4.9316 6.1957 0 3.0239 2.9618 1.2603 3.4067-2.0278 0.21698-1.6015-0.22906-3.7274-0.99094-4.7223-2.2446-2.9324-17.617-8.7163-23.776-8.9464l-5.6838-0.2105-3.948 8.498c-4.118 8.8614-4.916 14.916-2.423 18.384 1.7287 2.403 11.727 9.0406 13.645 9.0589 0.73053 0.003906 2.9848-0.61572 5.01-1.3819zm-71.432-5.2191c1.9878-1.0577 3.6164-2.7965 3.6164-3.8646 0-2.8658-19.97-2.39-24.142 0.57394-5.9394 4.2202-3.0547 5.9695 9.0737 5.5093 4.3084-0.16473 9.463-1.1636 11.452-2.2186zm-59.671-3.3221c0-1.1453-1.2947-1.8317-3.4537-1.8317-1.8998 0-4.9437-1.2708-6.7628-2.8239-2.8052-2.3926-3.215-3.5365-2.6918-7.5175 0.33868-2.5821 0.99811-5.7185 1.4634-6.971 0.55933-1.5048 0.18683-2.5507-1.1018-3.0867-4.8436-2.016-8.1056 7.6887-5.6139 16.703 1.8155 6.5696 9.0218 10.817 14.709 8.668 1.8974-0.72043 3.4513-2.1324 3.4513-3.1404zm-39.364 1.4891c0.8185-2.3141-12.8-16.107-17.043-17.263-3.3139-0.90079-6.9701 2.2578-5.9491 5.1419 0.36288 1.025 4.0167 4.602 8.1189 7.9463 7.656 6.2401 13.556 7.8966 14.873 4.1745zm241.89-0.7073c0-0.72037-0.43515-1.3074-0.96799-1.3074-0.53281 0-6.348-4.4085-12.924-9.7962-13.587-11.13-23.677-17.22-38.149-23.028-29.432-11.812-49.918-14.009-79.106-8.4823-12.096 2.2905-28.032 9.6341-42.046 19.374-15.375 10.688-19.077 15.778-5.3764 7.3907 6.6615-4.0778 38.392-19.025 42.951-20.233 1.3261-0.35175 9.0604-1.3205 17.188-2.152 18.324-1.8761 38.299 0.001312 53.333 5.0099 14.791 4.9302 39.968 18.455 56.055 30.114 6.1431 4.4529 9.0423 5.4492 9.0423 3.1103zm-23.592-1.1583c1.7588-3.0894-10.14-7.4717-16.677-6.1408-3.5791 0.72821-4.3349 1.4421-4.3349 4.0908 0 3.1534 0.17484 3.2096 10.173 3.2096 5.5983-0.001312 10.474-0.52295 10.838-1.1596zm98.523-4.4974c5.3825-4.4399 1.7094-11.897-4.195-8.5254-4.6689 2.6645-5.4175 5.0831-2.54 8.2025 2.2639 2.4579 4.0432 2.5416 6.735 0.32294zm-224.1-6.9932c2.0023-4.7667-1.2404-7.7999-6.5795-6.1486-3.0884 0.95435-4.0697 2.033-4.365 4.7955-0.69196 6.4389 8.3384 7.5567 10.945 1.3532zm-82.197-1.4055c0.050629-0.53995 0.26764-1.9637 0.48218-3.1652 0.54367-3.0476-2.2012-6.8886-9.2304-12.914-6.993-5.9943-10.127-6.4885-12.057-1.8969-2.0083 4.7798 0.15428 8.8065 7.6789 14.303 5.7465 4.198 12.889 6.1957 13.126 3.6737zm98.016-3.6332c3.1065-3.3678 0.70758-7.8064-4.2192-7.8064-3.3525 0-4.1505 0.54126-4.4784 3.0357-0.2182 1.6695-0.098816 3.8764 0.26401 4.9027 0.87277 2.4683 6.1118 2.3873 8.4336-0.13208zm140.9-2.25c6.8278-4.1405 12.087-9.6655 14.873-15.624 3.7417-8.0103 3.4934-12.157-0.72577-12.157-2.8774 0-2.9992 0.31375-2.6749 6.8807 0.3158 6.401 0.11328 6.9723-2.8799 8.2064-3.8262 1.578-4.3228 1.1636-5.9092-4.9576-0.67148-2.5808-1.9734-4.9641-2.8956-5.2975-1.373-0.49683-1.531 0.95441-0.86432 8.0038 0.74377 7.8874 0.60034 8.7346-1.7214 10.081-1.3911 0.80795-3.2874 1.157-4.2071 0.77261-2.3423-0.974-3.4634 1.531-1.7094 3.8215 1.7877 2.3363 5.1342 2.4409 8.7144 0.2706zm-123.86-2.3506c1.713-5.8545-6.5204-8.8366-9.5402-3.4555-1.0596 1.8866-0.85586 2.7442 1.0126 4.249 3.4283 2.7599 7.6006 2.3716 8.5275-0.79358zm-162.49-12.974c4.0299-2.6645 6.3408-8.4261 4.2783-10.663-2.4749-2.684-7.1172 0.24972-9.7704 6.1735-1.4357 3.207-2.6111 6.1094-2.6111 6.4506-0.00119 1.4917 4.5435 0.39224 8.1032-1.9611zm114.01-9.1922c4.2385-8.9176 1.1922-18.618-8.2093-26.152-5.462-4.3771-7.0943-5.1158-8.4998-3.8516-2.5713 2.3141-2.112 4.0856 0.97519 3.7587 3.1765-0.33731 6.9316 1.195 6.9316 2.8278 0 0.62756-2.171 2.3416-4.8219 3.8097-6.5566 3.6267-6.0889 5.5172 0.80765 3.2659 3.0969-1.0093 6.0805-1.5362 6.6302-1.1675 2.1193 1.4198 0.83783 4.0438-2.8461 5.8362-2.1144 1.0276-4.083 2.6841-4.3723 3.6777-0.42191 1.446 0.5907 1.6264 5.051 0.90079 5.0365-0.81973 5.579-0.65634 5.579 1.6773 0 1.4225-1.4924 3.8006-3.3151 5.2858-2.7967 2.2762-3.033 2.9076-1.5068 4.0293 2.9426 2.1664 5.2872 0.96225 7.597-3.8986zm-92.357-2.1389c9.7523-5.3524 13.364-16.159 5.3994-16.159-6.1564 0-13.46 9.1517-13.46 16.865-0.001205 3.4986 0.47617 3.4554 8.061-0.70596zm233.29 1.9951c5.098-2.9586 13.008-15.713 13.008-20.973 0-2.4644-4.9473-5.027-9.7005-5.027-4.212 0-4.8436 3.0854-1.0765 5.2714 1.5888 0.92169 2.347 2.4697 2.1096 4.2948-0.3978 3.0305-1.9517 3.292-9.1147 1.5296-5.3752-1.3231-5.1305 1.3401 0.30139 3.2855 3.291 1.178 4.2192 2.2108 4.2192 4.7105 0 2.5089-0.78113 3.3678-3.6164 3.9836-4.0167 0.8707-4.7484 2.5599-1.5068 3.4789 1.1584 0.32816 2.2795 0.66547 2.4881 0.74915 0.21097 0.083649 1.5105-0.50333 2.8883-1.3035zm-123.13-3.1665c4.0287-2.2605 3.6875-4.1157-1.7781-9.6616l-3.1246-3.1691v7.4181c0 4.0804 0.29776 7.4194 0.6618 7.4194 0.36646 0 2.2735-0.9021 4.2409-2.0068zm102.66-0.9348c0.29413-0.89948-0.05426-4.4961-0.77512-7.9933l-1.3091-6.3591-3.9178 5.3028c-5.773 7.8129-5.1378 9.7308 3.4875 10.506 1.0898 0.098053 2.2205-0.55695 2.5146-1.4564zm-17.517-9.1517c3.4007-3.7757 7.0702-9.2105 8.1551-12.078 2.4326-6.4389 3.2282-15.154 1.5828-17.339-1.4128-1.8761-6.7736-2.1388-9.2268-0.45364-2.3193 1.5937-0.57983 4.049 2.8679 4.049 3.5055 0 4.3228 1.2434 3.3814 5.1498-0.65457 2.7154-1.2597 2.9324-6.6132 2.3742-6.5494-0.68112-7.3064 1.076-1.7335 4.0216 4.9641 2.6239 3.7056 6.2087-2.0096 5.7185-5.1594-0.4419-5.9551 1.6709-1.4634 3.8908 1.6575 0.81839 3.0137 2.2631 3.0137 3.2096 0 0.94788-1.3562 2.6854-3.0137 3.8633-2.9088 2.067-4.0179 4.4556-2.0698 4.4556 0.51956 0.001251 3.7286-3.088 7.1292-6.8625zm-54.256 2.9416c1.4056 0 1.6431-0.84979 1.0102-3.5888-0.85226-3.6855-2.7557-6.8703-4.1046-6.8703-1.103 0-3.6912 9.5295-2.9438 10.84 0.34598 0.60791 1.4321 0.77002 2.4146 0.36084 0.98245-0.40921 2.6111-0.74133 3.6237-0.74133zm-160.86-2.6003c2.6653-0.018311 11.362-8.4653 13.644-13.253 0.95113-1.9951 1.7311-5.0125 1.7311-6.7056 0-5.1485-6.4493-14.609-12.643-18.546-13.941-8.8588-31.96 0.8158-31.96 17.165 0 13.364 10.72 23.632 22.904 21.94 2.3205-0.32166 5.1654-0.59226 6.324-0.6001zm-14.032-7.7946c-12.677-2.7573-11.359-16.511 2.3374-24.405 7.2305-4.1679 13.211-3.6437 18.028 1.5806 3.6466 3.9562 3.7731 6.8677 0.58586 13.641-3.9226 8.3424-10.853 11.38-20.951 9.183zm12.662-10.726c3.0812-4.6948 2.2302-7.6443-2.2048-7.6378-4.1662 0.006561-11.188 4.5039-11.188 7.1671 0 1.089-0.032562 2.4213-0.072357 2.9612-0.10004 1.3819 4.9702 2.5363 8.2286 1.8761 1.5044-0.30456 3.8612-2.2696 5.2366-4.3666zm181.14 10.054c4.1674-11.289 5.0883-19.834 2.7834-25.817-2.3049-5.9839-7.304-9.8734-9.8006-7.626-2.4917 2.2435-1.2019 4.5536 3.5924 6.4349 3.215 1.2603 4.1782 2.3742 4.1782 4.8334 0 3.105-0.18805 3.1717-6.6579 2.3468-5.843-0.74521-6.5638-0.58835-5.902 1.2838 0.41589 1.1714 2.869 2.8187 5.4524 3.6581 3.3778 1.0982 4.6966 2.2448 4.6966 4.083 0 2.2814-0.5726 2.4631-5.3186 1.6917-8.1249-1.3218-8.4601 2.986-0.40143 5.1799 1.8203 0.49548 3.309 1.4643 3.309 2.152 0 2.5363-2.5484 6.3094-4.2614 6.3094-2.3941 0-2.235 2.2017 0.27124 3.7208 3.3187 2.0147 4.8472 0.44974 8.0586-8.2509zm-32.986 6.4729c0.83295-1.089 1.748-5.9434 2.0324-10.786 0.4267-7.2573 0.08197-9.5544-1.9517-13.054-2.1084-3.6266-3.1692-4.249-7.2389-4.249-5.7357 0-7.5499 2.1834-2.8498 3.4306 1.8504 0.49155 3.7623 1.5388 4.2493 2.3258 1.4924 2.4147 1.0235 4.7026-0.96558 4.7026-1.038 0-3.0089 0.65109-4.3819 1.4473-2.0011 1.161-2.1638 1.6747-0.82581 2.5938 0.91861 0.63016 3.162 1.1557 4.9859 1.1675 2.505 0.015686 3.3151 0.6589 3.3151 2.6357 0 1.4381-0.71121 2.6148-1.5792 2.6148-0.86795 0-2.6316 0.85376-3.9178 1.8984-2.2313 1.8107-2.1578 1.9388 1.5792 2.7781 2.1542 0.48373 3.9178 1.6879 3.9178 2.6775 0 2.3716 1.7419 2.284 3.6309-0.18301zm-228.62-4.415c3.6622-3.4267 4.7098-7.9044 2.6472-11.318-5.6766-9.3962-20.288-1.1309-15.599 8.8236 2.9486 6.2571 7.9104 7.2128 12.952 2.4945zm-8.6373-1.7114c-4.6821-5.0779 2.0819-13.056 6.987-8.2417 2.9088 2.8553 3.0535 5.0099 0.52197 7.7554-2.2554 2.4474-5.5066 2.658-7.5089 0.48636zm30.422 4.2163c3.6622-1.51 4.0263-4.6281 0.76065-6.5226-3.168-1.8382-4.4012-1.7088-6.6205 0.69812-1.4285 1.5493-1.5864 2.6697-0.64613 4.5759 1.4188 2.8762 2.1952 3.0253 6.506 1.2486zm395.42-1.2695c2.0325-2.4356 2.018-2.7023-0.32306-6.21-4.9557-7.4312-29.433-30.84-46.444-44.422-15.192-12.129-47.49-30.496-53.622-30.496-3.5743 0-5.5042 2.3298-4.0167 4.8426 0.43518 0.73608 7.0304 4.4451 14.656 8.2444 16.954 8.4457 31.983 18.944 51.977 36.309 13.653 11.858 31.202 30.555 31.202 33.244 0 2.0212 4.4819 0.98968 6.571-1.5114zm-375.66-11.987c-0.26038-2.9442-1.0873-4.5484-2.4977-4.8373-1.672-0.34378-2.1096 0.48245-2.1096 3.9771 0 4.7223 2.2012 8.2979 3.9443 6.4062 0.57863-0.62753 0.87758-3.122 0.66299-5.5459zm67.283-14.892c-0.90289-2.5533-3.0812-2.063-4.8991 1.1034-0.98004 1.7061-0.8571 2.5402 0.51717 3.4698 2.3603 1.5977 5.4319-1.6055 4.3819-4.5732zm16.979-9.9544c15.469-9.0758 28.082-21.012 32.798-31.037 4.5965-9.7688 0.71841-10.557-13.228-2.6893-19.617 11.07-39.968 37.806-28.776 37.806 1.2404 0 5.3825-1.8356 9.2062-4.079zm-24.899-5.3995c3.8877-4.4268 6.3674-8.8052 5.5126-9.7321-0.92096-1.0002-10.414 9.268-10.414 11.263 0 2.2879 2.1313 1.6225 4.9015-1.531zm-4.6664-16.996c10.541-13.133 19.229-28.867 20.967-37.97 1.6334-8.5712 1.9336-13.998 0.76909-13.998-2.1192 0-16.579 18.502-20.522 26.259-3.1788 6.2545-9.8861 28.305-9.8861 32.502-0.001221 2.9246 2.3555 1.0786 8.6722-6.7919zm-105.98 121.59c-1.1874-1.6643-4.4784-17.783-5.8044-28.436-0.66301-5.3236-0.39177-6.2375 2.8474-9.5949 3.2572-3.377 4.488-3.747 13.648-4.1182 5.538-0.22357 16.579-1.965 24.536-3.8672 23.779-5.6897 22.952-5.6701 25.415-0.55304 3.2982 6.8546 6.2492 20.62 5.3933 25.161-0.46533 2.4658-1.9167 4.6817-3.6984 5.644-4.2059 2.2735-7.1822-0.95837-7.339-7.9725-0.15793-7.0311-1.3839-11.564-3.3199-12.262-1.2127-0.43927-1.4767 1.7061-1.1717 9.574 0.39056 10.116 0.38333 10.143-3.0294 11.402-4.3964 1.6212-5.2993 0.54257-6.8182-8.1398-1.32-7.5502-4.4519-12.743-6.4071-10.622-0.73292 0.79486-0.60274 5.087 0.36043 11.796 1.7142 11.951 0.74741 14.899-4.658 14.207-2.7473-0.35168-3.2307-1.2826-4.6097-8.8902-2.452-13.537-2.7232-14.381-4.605-14.381-2.0397 0-2.282 5.1223-0.66904 14.173 1.3357 7.503 0.45808 10.914-2.6834 10.408-1.6925-0.27191-3.0486-2.233-4.3626-6.3055-2.4291-7.5331-3.4236-9.1242-5.6995-9.1242-1.5237 0-1.7805 1.7493-1.4863 10.145 0.19527 5.5799-0.061508 10.874-0.56902 11.766-1.1898 2.0879-3.778 2.0814-5.2704-0.010437zm161.18-34.35c-0.83902-1.0969-1.3128-2.1337-1.0512-2.3062 0.26041-0.17255 3.3283-2.8475 6.817-5.9446 6.5651-5.8257 10.182-6.5761 10.947-2.2709 0.44482 2.5063-1.8227 5.0596-8.8531 9.9766-4.3686 3.0527-5.861 3.1573-7.8597 0.54517z" fill="#7f007f"/>
</svg>
